<svg width="14" height="14" viewBox="0 0 14 14" fill="none" xmlns="http://www.w3.org/2000/svg">
<path d="M8 5V6H6V5C6 4.44772 6.44772 4 7 4C7.55228 4 8 4.44772 8 5Z" fill="#3C3C43"/>
<path fill-rule="evenodd" clip-rule="evenodd" d="M7 14C10.866 14 14 10.866 14 7C14 3.13401 10.866 0 7 0C3.13401 0 0 3.13401 0 7C0 10.866 3.13401 14 7 14ZM10 7C10 6.44772 9.55228 6 9 6V5C9 3.89543 8.10457 3 7 3C5.89543 3 5 3.89543 5 5V6C4.44772 6 4 6.44772 4 7V10C4 10.5523 4.44772 11 5 11H9C9.55228 11 10 10.5523 10 10V7Z" fill="#3C3C43"/>
</svg>
