<svg width="14" height="14" viewBox="0 0 14 14" fill="none" xmlns="http://www.w3.org/2000/svg">
<path fill-rule="evenodd" clip-rule="evenodd" d="M7 14C10.866 14 14 10.866 14 7C14 3.134 10.866 0 7 0C3.134 0 0 3.134 0 7C0 10.866 3.134 14 7 14ZM9.00002 5C9.00002 6.10458 8.10458 7 7.00002 7C5.89545 7 5.00002 6.10458 5.00002 5C5.00002 3.89542 5.89545 3 7.00002 3C8.10458 3 9.00002 3.89542 9.00002 5ZM2.57997 11.0576C2.28926 10.7411 2.28926 10.2589 2.57997 9.94244C3.67668 8.74841 5.25095 8 7 8C8.74905 8 10.3233 8.74841 11.42 9.94244C11.7107 10.2589 11.7107 10.7411 11.42 11.0576C10.3233 12.2516 8.74905 13 7 13C5.25095 13 3.67668 12.2516 2.57997 11.0576Z" fill="#3C3C43"/>
</svg>
