<svg width="16" height="16" viewBox="0 0 16 16" fill="none" xmlns="http://www.w3.org/2000/svg">
<path d="M3.5 0.75C1.98122 0.75 0.75 1.98122 0.75 3.5V12.5C0.75 14.0188 1.98122 15.25 3.5 15.25H8.5C8.91421 15.25 9.25 14.9142 9.25 14.5C9.25 14.0858 8.91421 13.75 8.5 13.75H3.5C2.80964 13.75 2.25 13.1904 2.25 12.5V3.5C2.25 2.80964 2.80964 2.25 3.5 2.25H8.5C8.91421 2.25 9.25 1.91421 9.25 1.5C9.25 1.08579 8.91421 0.75 8.5 0.75H3.5Z" fill="#007AFF"/>
<path d="M10.4697 4.46967C10.7626 4.17678 11.2374 4.17678 11.5303 4.46967L14.5303 7.46967C14.6022 7.54158 14.6565 7.62445 14.6931 7.71291C14.7298 7.80134 14.75 7.89831 14.75 8C14.75 8.19194 14.6768 8.38388 14.5303 8.53033L11.5303 11.5303C11.2374 11.8232 10.7626 11.8232 10.4697 11.5303C10.1768 11.2374 10.1768 10.7626 10.4697 10.4697L12.1893 8.75H6C5.58579 8.75 5.25 8.41421 5.25 8C5.25 7.58579 5.58579 7.25 6 7.25H12.1893L10.4697 5.53033C10.1768 5.23744 10.1768 4.76256 10.4697 4.46967Z" fill="#007AFF"/>
</svg>
