<svg width="16" height="14" viewBox="0 0 16 14" fill="none" xmlns="http://www.w3.org/2000/svg">
<path d="M4.28033 0.21967C4.14461 0.0839467 3.95711 0 3.75 0C3.54289 0 3.35539 0.0839468 3.21967 0.21967L0.21967 3.21967C-0.0732233 3.51256 -0.0732233 3.98744 0.21967 4.28033C0.512563 4.57322 0.987437 4.57322 1.28033 4.28033L3 2.56066V13.25C3 13.6642 3.33579 14 3.75 14C4.16421 14 4.5 13.6642 4.5 13.25V2.56066L6.21967 4.28033C6.51256 4.57322 6.98744 4.57322 7.28033 4.28033C7.57322 3.98744 7.57322 3.51256 7.28033 3.21967L4.28033 0.21967Z" fill="#007AFF"/>
<path d="M12.5 11.4393L14.2197 9.71967C14.5126 9.42678 14.9874 9.42678 15.2803 9.71967C15.5732 10.0126 15.5732 10.4874 15.2803 10.7803L12.2803 13.7803C12.1446 13.9161 11.9571 14 11.75 14C11.5429 14 11.3554 13.9161 11.2197 13.7803L7.21967 10.7803C6.92678 10.4874 6.92678 10.0126 7.21967 9.71967C7.51256 9.42678 7.98744 9.42678 8.28033 9.71967L11 11.4393L11 0.75C11 0.335787 11.3358 0 11.75 0C12.1642 0 12.5 0.335787 12.5 0.75L12.5 11.4393Z" fill="#007AFF"/>
</svg>
